<mxfile host="app.diagrams.net" modified="2023-08-12T02:00:21.371Z" agent="Mozilla/5.0 (Windows NT 10.0; Win64; x64) AppleWebKit/537.36 (KHTML, like Gecko) Chrome/115.0.0.0 Safari/537.36 Edg/115.0.1901.200" etag="M9Aiyy2PEtEPTXt3GXCo" version="21.6.8" type="github">
  <diagram id="C5RBs43oDa-KdzZeNtuy" name="Page-1">
    <mxGraphModel dx="857" dy="543" grid="1" gridSize="10" guides="1" tooltips="1" connect="1" arrows="1" fold="1" page="1" pageScale="1" pageWidth="827" pageHeight="1169" math="0" shadow="0">
      <root>
        <mxCell id="WIyWlLk6GJQsqaUBKTNV-0" />
        <mxCell id="WIyWlLk6GJQsqaUBKTNV-1" parent="WIyWlLk6GJQsqaUBKTNV-0" />
        <mxCell id="9Z5wlnk7catBaOf4IrEr-28" value="" style="rounded=0;whiteSpace=wrap;html=1;fillColor=#f5f5f5;strokeColor=#666666;gradientColor=#b3b3b3;" vertex="1" parent="WIyWlLk6GJQsqaUBKTNV-1">
          <mxGeometry y="60" width="770" height="610" as="geometry" />
        </mxCell>
        <mxCell id="9Z5wlnk7catBaOf4IrEr-25" value="" style="rounded=0;whiteSpace=wrap;html=1;fillColor=#d5e8d4;strokeColor=#82b366;" vertex="1" parent="WIyWlLk6GJQsqaUBKTNV-1">
          <mxGeometry x="300" y="360" width="440" height="300" as="geometry" />
        </mxCell>
        <mxCell id="9Z5wlnk7catBaOf4IrEr-0" value="" style="rounded=0;whiteSpace=wrap;html=1;fillColor=#fff2cc;strokeColor=#d6b656;opacity=60;" vertex="1" parent="WIyWlLk6GJQsqaUBKTNV-1">
          <mxGeometry x="10" y="70" width="430" height="370" as="geometry" />
        </mxCell>
        <mxCell id="9Z5wlnk7catBaOf4IrEr-58" style="edgeStyle=orthogonalEdgeStyle;rounded=0;orthogonalLoop=1;jettySize=auto;html=1;" edge="1" parent="WIyWlLk6GJQsqaUBKTNV-1" source="9Z5wlnk7catBaOf4IrEr-2" target="9Z5wlnk7catBaOf4IrEr-24">
          <mxGeometry relative="1" as="geometry">
            <Array as="points">
              <mxPoint x="145" y="150" />
              <mxPoint x="145" y="120" />
            </Array>
          </mxGeometry>
        </mxCell>
        <mxCell id="9Z5wlnk7catBaOf4IrEr-67" style="edgeStyle=orthogonalEdgeStyle;rounded=0;orthogonalLoop=1;jettySize=auto;html=1;entryX=0;entryY=0.5;entryDx=0;entryDy=0;" edge="1" parent="WIyWlLk6GJQsqaUBKTNV-1" source="9Z5wlnk7catBaOf4IrEr-2" target="9Z5wlnk7catBaOf4IrEr-8">
          <mxGeometry relative="1" as="geometry">
            <Array as="points">
              <mxPoint x="30" y="150" />
              <mxPoint x="30" y="260" />
            </Array>
          </mxGeometry>
        </mxCell>
        <mxCell id="9Z5wlnk7catBaOf4IrEr-68" style="edgeStyle=orthogonalEdgeStyle;rounded=0;orthogonalLoop=1;jettySize=auto;html=1;entryX=0.008;entryY=0.628;entryDx=0;entryDy=0;entryPerimeter=0;" edge="1" parent="WIyWlLk6GJQsqaUBKTNV-1" source="9Z5wlnk7catBaOf4IrEr-2" target="9Z5wlnk7catBaOf4IrEr-9">
          <mxGeometry relative="1" as="geometry">
            <Array as="points">
              <mxPoint x="30" y="150" />
              <mxPoint x="30" y="338" />
            </Array>
          </mxGeometry>
        </mxCell>
        <mxCell id="9Z5wlnk7catBaOf4IrEr-69" style="edgeStyle=orthogonalEdgeStyle;rounded=0;orthogonalLoop=1;jettySize=auto;html=1;entryX=0;entryY=0.5;entryDx=0;entryDy=0;" edge="1" parent="WIyWlLk6GJQsqaUBKTNV-1" source="9Z5wlnk7catBaOf4IrEr-2" target="9Z5wlnk7catBaOf4IrEr-21">
          <mxGeometry relative="1" as="geometry">
            <Array as="points">
              <mxPoint x="30" y="150" />
              <mxPoint x="30" y="400" />
            </Array>
          </mxGeometry>
        </mxCell>
        <mxCell id="9Z5wlnk7catBaOf4IrEr-73" style="edgeStyle=orthogonalEdgeStyle;rounded=0;orthogonalLoop=1;jettySize=auto;html=1;" edge="1" parent="WIyWlLk6GJQsqaUBKTNV-1">
          <mxGeometry relative="1" as="geometry">
            <mxPoint x="110" y="150" as="sourcePoint" />
            <mxPoint x="370" y="140" as="targetPoint" />
            <Array as="points">
              <mxPoint x="370" y="150" />
            </Array>
          </mxGeometry>
        </mxCell>
        <mxCell id="9Z5wlnk7catBaOf4IrEr-74" style="edgeStyle=orthogonalEdgeStyle;rounded=0;orthogonalLoop=1;jettySize=auto;html=1;" edge="1" parent="WIyWlLk6GJQsqaUBKTNV-1" source="9Z5wlnk7catBaOf4IrEr-2" target="9Z5wlnk7catBaOf4IrEr-7">
          <mxGeometry relative="1" as="geometry">
            <Array as="points">
              <mxPoint x="210" y="150" />
              <mxPoint x="210" y="190" />
            </Array>
          </mxGeometry>
        </mxCell>
        <mxCell id="9Z5wlnk7catBaOf4IrEr-75" style="edgeStyle=orthogonalEdgeStyle;rounded=0;orthogonalLoop=1;jettySize=auto;html=1;entryX=0;entryY=0.5;entryDx=0;entryDy=0;" edge="1" parent="WIyWlLk6GJQsqaUBKTNV-1" source="9Z5wlnk7catBaOf4IrEr-2" target="9Z5wlnk7catBaOf4IrEr-16">
          <mxGeometry relative="1" as="geometry">
            <Array as="points">
              <mxPoint x="210" y="150" />
              <mxPoint x="210" y="220" />
              <mxPoint x="300" y="220" />
              <mxPoint x="300" y="260" />
            </Array>
          </mxGeometry>
        </mxCell>
        <mxCell id="9Z5wlnk7catBaOf4IrEr-2" value="Usuário comum" style="shape=umlActor;verticalLabelPosition=bottom;verticalAlign=top;html=1;outlineConnect=0;" vertex="1" parent="WIyWlLk6GJQsqaUBKTNV-1">
          <mxGeometry x="80" y="120" width="30" height="60" as="geometry" />
        </mxCell>
        <mxCell id="9Z5wlnk7catBaOf4IrEr-6" value="Buscar Motorhomes para Compra" style="rounded=1;whiteSpace=wrap;html=1;" vertex="1" parent="WIyWlLk6GJQsqaUBKTNV-1">
          <mxGeometry x="310" y="80" width="120" height="60" as="geometry" />
        </mxCell>
        <mxCell id="9Z5wlnk7catBaOf4IrEr-7" value="Buscar Motorhomes para alugar" style="rounded=1;whiteSpace=wrap;html=1;" vertex="1" parent="WIyWlLk6GJQsqaUBKTNV-1">
          <mxGeometry x="310" y="160" width="120" height="60" as="geometry" />
        </mxCell>
        <mxCell id="9Z5wlnk7catBaOf4IrEr-9" value="Adicionar motorhome aos Favoritos" style="rounded=1;whiteSpace=wrap;html=1;" vertex="1" parent="WIyWlLk6GJQsqaUBKTNV-1">
          <mxGeometry x="50" y="300" width="120" height="60" as="geometry" />
        </mxCell>
        <mxCell id="9Z5wlnk7catBaOf4IrEr-10" value="Iniciar um chat com a fábrica/loja" style="rounded=1;whiteSpace=wrap;html=1;" vertex="1" parent="WIyWlLk6GJQsqaUBKTNV-1">
          <mxGeometry x="180" y="370" width="120" height="60" as="geometry" />
        </mxCell>
        <mxCell id="9Z5wlnk7catBaOf4IrEr-12" value="Cadastrar seu motorhome para venda ou alocação" style="rounded=1;whiteSpace=wrap;html=1;" vertex="1" parent="WIyWlLk6GJQsqaUBKTNV-1">
          <mxGeometry x="310" y="370" width="120" height="60" as="geometry" />
        </mxCell>
        <mxCell id="9Z5wlnk7catBaOf4IrEr-53" style="edgeStyle=orthogonalEdgeStyle;rounded=0;orthogonalLoop=1;jettySize=auto;html=1;" edge="1" parent="WIyWlLk6GJQsqaUBKTNV-1" source="9Z5wlnk7catBaOf4IrEr-13" target="9Z5wlnk7catBaOf4IrEr-18">
          <mxGeometry relative="1" as="geometry" />
        </mxCell>
        <mxCell id="9Z5wlnk7catBaOf4IrEr-54" style="edgeStyle=orthogonalEdgeStyle;rounded=0;orthogonalLoop=1;jettySize=auto;html=1;" edge="1" parent="WIyWlLk6GJQsqaUBKTNV-1" source="9Z5wlnk7catBaOf4IrEr-13" target="9Z5wlnk7catBaOf4IrEr-15">
          <mxGeometry relative="1" as="geometry" />
        </mxCell>
        <mxCell id="9Z5wlnk7catBaOf4IrEr-70" style="edgeStyle=orthogonalEdgeStyle;rounded=0;orthogonalLoop=1;jettySize=auto;html=1;entryX=1;entryY=0.5;entryDx=0;entryDy=0;" edge="1" parent="WIyWlLk6GJQsqaUBKTNV-1" source="9Z5wlnk7catBaOf4IrEr-13" target="9Z5wlnk7catBaOf4IrEr-32">
          <mxGeometry relative="1" as="geometry">
            <Array as="points">
              <mxPoint x="710" y="570" />
              <mxPoint x="710" y="470" />
            </Array>
          </mxGeometry>
        </mxCell>
        <mxCell id="9Z5wlnk7catBaOf4IrEr-71" style="edgeStyle=orthogonalEdgeStyle;rounded=0;orthogonalLoop=1;jettySize=auto;html=1;entryX=0.999;entryY=0.639;entryDx=0;entryDy=0;entryPerimeter=0;" edge="1" parent="WIyWlLk6GJQsqaUBKTNV-1" source="9Z5wlnk7catBaOf4IrEr-13" target="9Z5wlnk7catBaOf4IrEr-22">
          <mxGeometry relative="1" as="geometry">
            <Array as="points">
              <mxPoint x="710" y="570" />
              <mxPoint x="710" y="408" />
            </Array>
          </mxGeometry>
        </mxCell>
        <mxCell id="9Z5wlnk7catBaOf4IrEr-13" value="Fábrica/Loja" style="shape=umlActor;verticalLabelPosition=bottom;verticalAlign=top;html=1;outlineConnect=0;" vertex="1" parent="WIyWlLk6GJQsqaUBKTNV-1">
          <mxGeometry x="600" y="540" width="30" height="60" as="geometry" />
        </mxCell>
        <mxCell id="9Z5wlnk7catBaOf4IrEr-14" value="Responder chat dos clientes" style="rounded=1;whiteSpace=wrap;html=1;" vertex="1" parent="WIyWlLk6GJQsqaUBKTNV-1">
          <mxGeometry x="310" y="440" width="120" height="60" as="geometry" />
        </mxCell>
        <mxCell id="9Z5wlnk7catBaOf4IrEr-15" value="Receber pedido personalizados" style="rounded=1;whiteSpace=wrap;html=1;" vertex="1" parent="WIyWlLk6GJQsqaUBKTNV-1">
          <mxGeometry x="310" y="510" width="120" height="60" as="geometry" />
        </mxCell>
        <mxCell id="9Z5wlnk7catBaOf4IrEr-17" style="edgeStyle=orthogonalEdgeStyle;rounded=0;orthogonalLoop=1;jettySize=auto;html=1;exitX=0.5;exitY=1;exitDx=0;exitDy=0;" edge="1" parent="WIyWlLk6GJQsqaUBKTNV-1" source="9Z5wlnk7catBaOf4IrEr-11" target="9Z5wlnk7catBaOf4IrEr-11">
          <mxGeometry relative="1" as="geometry" />
        </mxCell>
        <mxCell id="9Z5wlnk7catBaOf4IrEr-18" value="Abrir exposição de determinado anúncio" style="rounded=1;whiteSpace=wrap;html=1;" vertex="1" parent="WIyWlLk6GJQsqaUBKTNV-1">
          <mxGeometry x="310" y="580" width="120" height="60" as="geometry" />
        </mxCell>
        <mxCell id="9Z5wlnk7catBaOf4IrEr-19" value="Configurar politicas&amp;nbsp; de aluguel." style="rounded=1;whiteSpace=wrap;html=1;" vertex="1" parent="WIyWlLk6GJQsqaUBKTNV-1">
          <mxGeometry x="440" y="370" width="120" height="60" as="geometry" />
        </mxCell>
        <mxCell id="9Z5wlnk7catBaOf4IrEr-21" value="Avaliar um motorhome já alugado." style="rounded=1;whiteSpace=wrap;html=1;" vertex="1" parent="WIyWlLk6GJQsqaUBKTNV-1">
          <mxGeometry x="50" y="370" width="120" height="60" as="geometry" />
        </mxCell>
        <mxCell id="9Z5wlnk7catBaOf4IrEr-22" value="Negar pedido recebido" style="rounded=1;whiteSpace=wrap;html=1;" vertex="1" parent="WIyWlLk6GJQsqaUBKTNV-1">
          <mxGeometry x="570" y="370" width="120" height="60" as="geometry" />
        </mxCell>
        <mxCell id="9Z5wlnk7catBaOf4IrEr-24" value="Criar sua própria conta" style="rounded=1;whiteSpace=wrap;html=1;" vertex="1" parent="WIyWlLk6GJQsqaUBKTNV-1">
          <mxGeometry x="180" y="80" width="120" height="60" as="geometry" />
        </mxCell>
        <mxCell id="9Z5wlnk7catBaOf4IrEr-30" value="&lt;i&gt;&lt;font style=&quot;font-size: 10px;&quot;&gt;Casos de uso do usuario&lt;/font&gt;&lt;/i&gt;" style="text;html=1;align=center;verticalAlign=middle;resizable=0;points=[];autosize=1;strokeColor=none;fillColor=none;" vertex="1" parent="WIyWlLk6GJQsqaUBKTNV-1">
          <mxGeometry x="40" y="80" width="130" height="30" as="geometry" />
        </mxCell>
        <mxCell id="9Z5wlnk7catBaOf4IrEr-31" value="&lt;i&gt;&lt;font style=&quot;font-size: 10px;&quot;&gt;Casos de uso da Fábrica/Loja&lt;/font&gt;&lt;/i&gt;" style="text;html=1;align=center;verticalAlign=middle;resizable=0;points=[];autosize=1;strokeColor=none;fillColor=none;" vertex="1" parent="WIyWlLk6GJQsqaUBKTNV-1">
          <mxGeometry x="540" y="630" width="160" height="30" as="geometry" />
        </mxCell>
        <mxCell id="9Z5wlnk7catBaOf4IrEr-33" value="Agendar visita com a fábrica" style="rounded=1;whiteSpace=wrap;html=1;" vertex="1" parent="WIyWlLk6GJQsqaUBKTNV-1">
          <mxGeometry x="310" y="300" width="120" height="60" as="geometry" />
        </mxCell>
        <mxCell id="9Z5wlnk7catBaOf4IrEr-44" value="" style="endArrow=classic;html=1;rounded=0;" edge="1" parent="WIyWlLk6GJQsqaUBKTNV-1" target="9Z5wlnk7catBaOf4IrEr-12">
          <mxGeometry width="50" height="50" relative="1" as="geometry">
            <mxPoint x="600" y="570" as="sourcePoint" />
            <mxPoint x="645" y="510" as="targetPoint" />
          </mxGeometry>
        </mxCell>
        <mxCell id="9Z5wlnk7catBaOf4IrEr-45" value="" style="endArrow=classic;html=1;rounded=0;" edge="1" parent="WIyWlLk6GJQsqaUBKTNV-1" target="9Z5wlnk7catBaOf4IrEr-19">
          <mxGeometry width="50" height="50" relative="1" as="geometry">
            <mxPoint x="610" y="540" as="sourcePoint" />
            <mxPoint x="422" y="440" as="targetPoint" />
          </mxGeometry>
        </mxCell>
        <mxCell id="9Z5wlnk7catBaOf4IrEr-23" value="Solicitar mais informações do pedido." style="rounded=1;whiteSpace=wrap;html=1;" vertex="1" parent="WIyWlLk6GJQsqaUBKTNV-1">
          <mxGeometry x="440" y="440" width="120" height="60" as="geometry" />
        </mxCell>
        <mxCell id="9Z5wlnk7catBaOf4IrEr-32" value="Gerar perfil da fábrica loja" style="rounded=1;whiteSpace=wrap;html=1;" vertex="1" parent="WIyWlLk6GJQsqaUBKTNV-1">
          <mxGeometry x="570" y="440" width="120" height="60" as="geometry" />
        </mxCell>
        <mxCell id="9Z5wlnk7catBaOf4IrEr-52" value="" style="endArrow=classic;html=1;rounded=0;entryX=0.93;entryY=0.995;entryDx=0;entryDy=0;entryPerimeter=0;" edge="1" parent="WIyWlLk6GJQsqaUBKTNV-1" target="9Z5wlnk7catBaOf4IrEr-23">
          <mxGeometry width="50" height="50" relative="1" as="geometry">
            <mxPoint x="600" y="570" as="sourcePoint" />
            <mxPoint x="556" y="500" as="targetPoint" />
          </mxGeometry>
        </mxCell>
        <mxCell id="9Z5wlnk7catBaOf4IrEr-57" value="" style="endArrow=classic;html=1;rounded=0;" edge="1" parent="WIyWlLk6GJQsqaUBKTNV-1" target="9Z5wlnk7catBaOf4IrEr-14">
          <mxGeometry width="50" height="50" relative="1" as="geometry">
            <mxPoint x="600" y="570" as="sourcePoint" />
            <mxPoint x="422" y="440" as="targetPoint" />
          </mxGeometry>
        </mxCell>
        <mxCell id="9Z5wlnk7catBaOf4IrEr-16" value="Criar pedidos personalizados junto às fábricas" style="rounded=1;whiteSpace=wrap;html=1;" vertex="1" parent="WIyWlLk6GJQsqaUBKTNV-1">
          <mxGeometry x="310" y="230" width="120" height="60" as="geometry" />
        </mxCell>
        <mxCell id="9Z5wlnk7catBaOf4IrEr-78" value="" style="endArrow=classic;html=1;rounded=0;" edge="1" parent="WIyWlLk6GJQsqaUBKTNV-1" target="9Z5wlnk7catBaOf4IrEr-33">
          <mxGeometry width="50" height="50" relative="1" as="geometry">
            <mxPoint x="110" y="150" as="sourcePoint" />
            <mxPoint x="111" y="180" as="targetPoint" />
          </mxGeometry>
        </mxCell>
        <mxCell id="9Z5wlnk7catBaOf4IrEr-79" value="" style="endArrow=classic;html=1;rounded=0;entryX=0.031;entryY=0.034;entryDx=0;entryDy=0;entryPerimeter=0;" edge="1" parent="WIyWlLk6GJQsqaUBKTNV-1" target="9Z5wlnk7catBaOf4IrEr-12">
          <mxGeometry width="50" height="50" relative="1" as="geometry">
            <mxPoint x="110" y="150" as="sourcePoint" />
            <mxPoint x="337" y="310" as="targetPoint" />
          </mxGeometry>
        </mxCell>
        <mxCell id="9Z5wlnk7catBaOf4IrEr-82" value="" style="endArrow=classic;html=1;rounded=0;entryX=0.5;entryY=0;entryDx=0;entryDy=0;" edge="1" parent="WIyWlLk6GJQsqaUBKTNV-1">
          <mxGeometry width="50" height="50" relative="1" as="geometry">
            <mxPoint x="110" y="150" as="sourcePoint" />
            <mxPoint x="240" y="370" as="targetPoint" />
          </mxGeometry>
        </mxCell>
        <mxCell id="9Z5wlnk7catBaOf4IrEr-83" value="" style="endArrow=classic;html=1;rounded=0;entryX=0.364;entryY=0.021;entryDx=0;entryDy=0;entryPerimeter=0;" edge="1" parent="WIyWlLk6GJQsqaUBKTNV-1" target="9Z5wlnk7catBaOf4IrEr-11">
          <mxGeometry width="50" height="50" relative="1" as="geometry">
            <mxPoint x="110" y="150" as="sourcePoint" />
            <mxPoint x="250" y="380" as="targetPoint" />
          </mxGeometry>
        </mxCell>
        <mxCell id="9Z5wlnk7catBaOf4IrEr-8" value="Realizar reserva de aluguel." style="rounded=1;whiteSpace=wrap;html=1;" vertex="1" parent="WIyWlLk6GJQsqaUBKTNV-1">
          <mxGeometry x="50" y="230" width="120" height="60" as="geometry" />
        </mxCell>
        <mxCell id="9Z5wlnk7catBaOf4IrEr-11" value="Pode tornar seu perfil em uma fábrica/loja" style="rounded=1;whiteSpace=wrap;html=1;" vertex="1" parent="WIyWlLk6GJQsqaUBKTNV-1">
          <mxGeometry x="180" y="300" width="120" height="60" as="geometry" />
        </mxCell>
      </root>
    </mxGraphModel>
  </diagram>
</mxfile>
